<?xml version="1.0" encoding="UTF-8" standalone="no"?>
<!DOCTYPE svg PUBLIC "-//W3C//DTD SVG 1.1//EN"
 "http://www.w3.org/Graphics/SVG/1.1/DTD/svg11.dtd">
<!-- Generated by graphviz version 2.42.4 (0)
 -->
<!-- Pages: 1 -->
<svg width="1436pt" height="116pt"
 viewBox="0.00 0.00 1436.42 116.00" xmlns="http://www.w3.org/2000/svg" xmlns:xlink="http://www.w3.org/1999/xlink">
<g id="graph0" class="graph" transform="scale(1 1) rotate(0) translate(4 112)">
<polygon fill="white" stroke="transparent" points="-4,4 -4,-112 1432.42,-112 1432.42,4 -4,4"/>
<!-- Quantum -->
<g id="node1" class="node">
<title>Quantum</title>
<ellipse fill="none" stroke="black" cx="53.95" cy="-90" rx="53.89" ry="18"/>
<text text-anchor="middle" x="53.95" y="-86.3" font-family="Times,serif" font-size="14.00">Quantum</text>
</g>
<!-- Logical -->
<g id="node2" class="node">
<title>Logical</title>
<ellipse fill="none" stroke="black" cx="169.95" cy="-90" rx="44.39" ry="18"/>
<text text-anchor="middle" x="169.95" y="-86.3" font-family="Times,serif" font-size="14.00">Logical</text>
</g>
<!-- Ontological -->
<g id="node3" class="node">
<title>Ontological</title>
<ellipse fill="none" stroke="black" cx="295.95" cy="-90" rx="63.89" ry="18"/>
<text text-anchor="middle" x="295.95" y="-86.3" font-family="Times,serif" font-size="14.00">Ontological</text>
</g>
<!-- Memory -->
<g id="node4" class="node">
<title>Memory</title>
<ellipse fill="none" stroke="black" cx="426.95" cy="-90" rx="49.29" ry="18"/>
<text text-anchor="middle" x="426.95" y="-86.3" font-family="Times,serif" font-size="14.00">Memory</text>
</g>
<!-- Docs -->
<g id="node5" class="node">
<title>Docs</title>
<ellipse fill="none" stroke="black" cx="527.95" cy="-90" rx="33.29" ry="18"/>
<text text-anchor="middle" x="527.95" y="-86.3" font-family="Times,serif" font-size="14.00">Docs</text>
</g>
<!-- e15fa59 -->
<g id="node6" class="node">
<title>e15fa59</title>
<ellipse fill="none" stroke="black" cx="527.95" cy="-18" rx="297.85" ry="18"/>
<text text-anchor="middle" x="527.95" y="-14.3" font-family="Times,serif" font-size="14.00">e15fa59 📜 Docs: онтологическая манифестация в README</text>
</g>
<!-- Docs&#45;&gt;e15fa59 -->
<g id="edge1" class="edge">
<title>Docs&#45;&gt;e15fa59</title>
<path fill="none" stroke="black" d="M527.95,-71.7C527.95,-63.98 527.95,-54.71 527.95,-46.11"/>
<polygon fill="black" stroke="black" points="531.45,-46.1 527.95,-36.1 524.45,-46.1 531.45,-46.1"/>
</g>
<!-- CI -->
<g id="node7" class="node">
<title>CI</title>
<ellipse fill="none" stroke="black" cx="1135.95" cy="-90" rx="27" ry="18"/>
<text text-anchor="middle" x="1135.95" y="-86.3" font-family="Times,serif" font-size="14.00">CI</text>
</g>
<!-- 75e5c18 -->
<g id="node8" class="node">
<title>75e5c18</title>
<ellipse fill="none" stroke="black" cx="1135.95" cy="-18" rx="292.45" ry="18"/>
<text text-anchor="middle" x="1135.95" y="-14.3" font-family="Times,serif" font-size="14.00">75e5c18 ⚙️ CI: фазовая маршрутизация через Woodpecker</text>
</g>
<!-- CI&#45;&gt;75e5c18 -->
<g id="edge2" class="edge">
<title>CI&#45;&gt;75e5c18</title>
<path fill="none" stroke="black" d="M1135.95,-71.7C1135.95,-63.98 1135.95,-54.71 1135.95,-46.11"/>
<polygon fill="black" stroke="black" points="1139.45,-46.1 1135.95,-36.1 1132.45,-46.1 1139.45,-46.1"/>
</g>
</g>
</svg>
