<?xml version="1.0" encoding="UTF-8" standalone="no"?>
<!DOCTYPE svg PUBLIC "-//W3C//DTD SVG 1.1//EN"
 "http://www.w3.org/Graphics/SVG/1.1/DTD/svg11.dtd">
<!-- Generated by graphviz version 2.42.4 (0)
 -->
<!-- Pages: 1 -->
<svg width="5134pt" height="116pt"
 viewBox="0.00 0.00 5133.75 116.00" xmlns="http://www.w3.org/2000/svg" xmlns:xlink="http://www.w3.org/1999/xlink">
<g id="graph0" class="graph" transform="scale(1 1) rotate(0) translate(4 112)">
<polygon fill="white" stroke="transparent" points="-4,4 -4,-112 5129.75,-112 5129.75,4 -4,4"/>
<!-- Quantum -->
<g id="node1" class="node">
<title>Quantum</title>
<ellipse fill="none" stroke="black" cx="2536.67" cy="-90" rx="53.89" ry="18"/>
<text text-anchor="middle" x="2536.67" y="-86.3" font-family="Times,serif" font-size="14.00">Quantum</text>
</g>
<!-- Logical -->
<g id="node2" class="node">
<title>Logical</title>
<ellipse fill="none" stroke="black" cx="2652.67" cy="-90" rx="44.39" ry="18"/>
<text text-anchor="middle" x="2652.67" y="-86.3" font-family="Times,serif" font-size="14.00">Logical</text>
</g>
<!-- Ontological -->
<g id="node3" class="node">
<title>Ontological</title>
<ellipse fill="none" stroke="black" cx="2778.67" cy="-90" rx="63.89" ry="18"/>
<text text-anchor="middle" x="2778.67" y="-86.3" font-family="Times,serif" font-size="14.00">Ontological</text>
</g>
<!-- Memory -->
<g id="node4" class="node">
<title>Memory</title>
<ellipse fill="none" stroke="black" cx="2909.67" cy="-90" rx="49.29" ry="18"/>
<text text-anchor="middle" x="2909.67" y="-86.3" font-family="Times,serif" font-size="14.00">Memory</text>
</g>
<!-- Docs -->
<g id="node5" class="node">
<title>Docs</title>
<ellipse fill="none" stroke="black" cx="3010.67" cy="-90" rx="33.29" ry="18"/>
<text text-anchor="middle" x="3010.67" y="-86.3" font-family="Times,serif" font-size="14.00">Docs</text>
</g>
<!-- CI -->
<g id="node6" class="node">
<title>CI</title>
<ellipse fill="none" stroke="black" cx="3088.67" cy="-90" rx="27" ry="18"/>
<text text-anchor="middle" x="3088.67" y="-86.3" font-family="Times,serif" font-size="14.00">CI</text>
</g>
<!-- cb98317 -->
<g id="node7" class="node">
<title>cb98317</title>
<ellipse fill="none" stroke="black" cx="323.67" cy="-18" rx="323.84" ry="18"/>
<text text-anchor="middle" x="323.67" y="-14.3" font-family="Times,serif" font-size="14.00">cb98317 🧬 Add phase&#45;based CI, docs generator, and memory tests</text>
</g>
<!-- CI&#45;&gt;cb98317 -->
<g id="edge1" class="edge">
<title>CI&#45;&gt;cb98317</title>
<path fill="none" stroke="black" d="M3068.66,-77.72C3063.59,-75.38 3058.06,-73.25 3052.67,-72 2922.99,-41.9 789.72,-40.39 656.67,-36 623.1,-34.89 587.64,-33.41 552.88,-31.79"/>
<polygon fill="black" stroke="black" points="552.76,-28.28 542.6,-31.3 552.43,-35.27 552.76,-28.28"/>
</g>
<!-- 1d38a43 -->
<g id="node8" class="node">
<title>1d38a43</title>
<ellipse fill="none" stroke="black" cx="853.67" cy="-18" rx="188.47" ry="18"/>
<text text-anchor="middle" x="853.67" y="-14.3" font-family="Times,serif" font-size="14.00">1d38a43 Add evaluator test step to CI</text>
</g>
<!-- CI&#45;&gt;1d38a43 -->
<g id="edge2" class="edge">
<title>CI&#45;&gt;1d38a43</title>
<path fill="none" stroke="black" d="M3068.66,-77.73C3063.59,-75.39 3058.06,-73.26 3052.67,-72 2836.03,-21.37 1272.85,-47.57 1050.67,-36 1031.46,-35 1011.22,-33.62 991.33,-32.08"/>
<polygon fill="black" stroke="black" points="991.52,-28.59 981.28,-31.29 990.97,-35.56 991.52,-28.59"/>
</g>
<!-- ecd2bb6 -->
<g id="node9" class="node">
<title>ecd2bb6</title>
<ellipse fill="none" stroke="black" cx="1363.67" cy="-18" rx="303.55" ry="18"/>
<text text-anchor="middle" x="1363.67" y="-14.3" font-family="Times,serif" font-size="14.00">ecd2bb6 Refactor CI: phase validation and ontology generation</text>
</g>
<!-- CI&#45;&gt;ecd2bb6 -->
<g id="edge3" class="edge">
<title>CI&#45;&gt;ecd2bb6</title>
<path fill="none" stroke="black" d="M3068.65,-77.76C3063.58,-75.42 3058.05,-73.28 3052.67,-72 2903.78,-36.56 1828.6,-42.16 1675.67,-36 1645.22,-34.77 1613.12,-33.27 1581.55,-31.66"/>
<polygon fill="black" stroke="black" points="1581.48,-28.15 1571.32,-31.14 1581.13,-35.14 1581.48,-28.15"/>
</g>
<!-- cf6242e -->
<g id="node10" class="node">
<title>cf6242e</title>
<ellipse fill="none" stroke="black" cx="1983.67" cy="-18" rx="298.95" ry="18"/>
<text text-anchor="middle" x="1983.67" y="-14.3" font-family="Times,serif" font-size="14.00">cf6242e Phase migration: added CI, coverage, and session log</text>
</g>
<!-- CI&#45;&gt;cf6242e -->
<g id="edge4" class="edge">
<title>CI&#45;&gt;cf6242e</title>
<path fill="none" stroke="black" d="M3068.63,-77.84C3063.56,-75.5 3058.04,-73.34 3052.67,-72 2888.4,-31.06 2460.75,-44.67 2291.67,-36 2263.44,-34.55 2233.76,-32.98 2204.43,-31.4"/>
<polygon fill="black" stroke="black" points="2204.25,-27.88 2194.07,-30.83 2203.87,-34.87 2204.25,-27.88"/>
</g>
<!-- 86cb8be -->
<g id="node11" class="node">
<title>86cb8be</title>
<ellipse fill="none" stroke="black" cx="2602.67" cy="-18" rx="301.65" ry="18"/>
<text text-anchor="middle" x="2602.67" y="-14.3" font-family="Times,serif" font-size="14.00">86cb8be Phase migration: added CI, coverage, and session log</text>
</g>
<!-- CI&#45;&gt;86cb8be -->
<g id="edge5" class="edge">
<title>CI&#45;&gt;86cb8be</title>
<path fill="none" stroke="black" d="M3068.18,-77.93C3063.22,-75.64 3057.85,-73.49 3052.67,-72 2982.07,-51.76 2903.12,-39.23 2831.3,-31.49"/>
<polygon fill="black" stroke="black" points="2831.52,-27.99 2821.21,-30.43 2830.79,-34.95 2831.52,-27.99"/>
</g>
<!-- 72b32aa -->
<g id="node12" class="node">
<title>72b32aa</title>
<ellipse fill="none" stroke="black" cx="3088.67" cy="-18" rx="166.27" ry="18"/>
<text text-anchor="middle" x="3088.67" y="-14.3" font-family="Times,serif" font-size="14.00">72b32aa Fix PYTHONPATH for CI</text>
</g>
<!-- CI&#45;&gt;72b32aa -->
<g id="edge6" class="edge">
<title>CI&#45;&gt;72b32aa</title>
<path fill="none" stroke="black" d="M3088.67,-71.7C3088.67,-63.98 3088.67,-54.71 3088.67,-46.11"/>
<polygon fill="black" stroke="black" points="3092.17,-46.1 3088.67,-36.1 3085.17,-46.1 3092.17,-46.1"/>
</g>
<!-- d2b77da -->
<g id="node13" class="node">
<title>d2b77da</title>
<ellipse fill="none" stroke="black" cx="3439.67" cy="-18" rx="167.07" ry="18"/>
<text text-anchor="middle" x="3439.67" y="-14.3" font-family="Times,serif" font-size="14.00">d2b77da Fix PYTHONPATH for CI</text>
</g>
<!-- CI&#45;&gt;d2b77da -->
<g id="edge7" class="edge">
<title>CI&#45;&gt;d2b77da</title>
<path fill="none" stroke="black" d="M3114.2,-83.91C3163.82,-74.01 3275.31,-51.78 3353.93,-36.1"/>
<polygon fill="black" stroke="black" points="3354.7,-39.51 3363.83,-34.13 3353.34,-32.65 3354.7,-39.51"/>
</g>
<!-- 90cdbcd -->
<g id="node14" class="node">
<title>90cdbcd</title>
<ellipse fill="none" stroke="black" cx="3846.67" cy="-18" rx="221.76" ry="18"/>
<text text-anchor="middle" x="3846.67" y="-14.3" font-family="Times,serif" font-size="14.00">90cdbcd Trigger CI and update requirements</text>
</g>
<!-- CI&#45;&gt;90cdbcd -->
<g id="edge8" class="edge">
<title>CI&#45;&gt;90cdbcd</title>
<path fill="none" stroke="black" d="M3115.2,-86.55C3206.16,-78.15 3509.99,-50.09 3696.25,-32.89"/>
<polygon fill="black" stroke="black" points="3696.77,-36.36 3706.41,-31.95 3696.13,-29.39 3696.77,-36.36"/>
</g>
<!-- 0dfd9c7 -->
<g id="node15" class="node">
<title>0dfd9c7</title>
<ellipse fill="none" stroke="black" cx="4237.67" cy="-18" rx="151.37" ry="18"/>
<text text-anchor="middle" x="4237.67" y="-14.3" font-family="Times,serif" font-size="14.00">0dfd9c7 Add Arca CI workflow</text>
</g>
<!-- CI&#45;&gt;0dfd9c7 -->
<g id="edge9" class="edge">
<title>CI&#45;&gt;0dfd9c7</title>
<path fill="none" stroke="black" d="M3115.84,-88.07C3231.81,-83.97 3696.73,-66.42 4077.67,-36 4092.04,-34.85 4107.11,-33.48 4122.03,-32.01"/>
<polygon fill="black" stroke="black" points="4122.71,-35.46 4132.31,-30.99 4122.02,-28.5 4122.71,-35.46"/>
</g>
<!-- 062cd87 -->
<g id="node16" class="node">
<title>062cd87</title>
<ellipse fill="none" stroke="black" cx="4553.67" cy="-18" rx="146.47" ry="18"/>
<text text-anchor="middle" x="4553.67" y="-14.3" font-family="Times,serif" font-size="14.00">062cd87 Trigger CI workflow</text>
</g>
<!-- CI&#45;&gt;062cd87 -->
<g id="edge10" class="edge">
<title>CI&#45;&gt;062cd87</title>
<path fill="none" stroke="black" d="M3115.89,-88.59C3253.18,-86.35 3883.37,-74.39 4397.67,-36 4412.13,-34.92 4427.32,-33.56 4442.31,-32.07"/>
<polygon fill="black" stroke="black" points="4443.05,-35.51 4452.64,-31.02 4442.34,-28.55 4443.05,-35.51"/>
</g>
<!-- 30508d3 -->
<g id="node17" class="node">
<title>30508d3</title>
<ellipse fill="none" stroke="black" cx="4921.67" cy="-18" rx="204.16" ry="18"/>
<text text-anchor="middle" x="4921.67" y="-14.3" font-family="Times,serif" font-size="14.00">30508d3 Add GitHub Actions CI workflow</text>
</g>
<!-- CI&#45;&gt;30508d3 -->
<g id="edge11" class="edge">
<title>CI&#45;&gt;30508d3</title>
<path fill="none" stroke="black" d="M3115.66,-88.59C3270.63,-86.15 4062.82,-72.32 4708.67,-36 4729.05,-34.85 4750.52,-33.41 4771.66,-31.86"/>
<polygon fill="black" stroke="black" points="4771.96,-35.35 4781.67,-31.12 4771.44,-28.37 4771.96,-35.35"/>
</g>
</g>
</svg>
