<?xml version="1.0" encoding="UTF-8" standalone="no"?>
<!DOCTYPE svg PUBLIC "-//W3C//DTD SVG 1.1//EN"
 "http://www.w3.org/Graphics/SVG/1.1/DTD/svg11.dtd">
<!-- Generated by graphviz version 2.42.4 (0)
 -->
<!-- Pages: 1 -->
<svg width="4989pt" height="116pt"
 viewBox="0.00 0.00 4989.27 116.00" xmlns="http://www.w3.org/2000/svg" xmlns:xlink="http://www.w3.org/1999/xlink">
<g id="graph0" class="graph" transform="scale(1 1) rotate(0) translate(4 112)">
<polygon fill="white" stroke="transparent" points="-4,4 -4,-112 4985.27,-112 4985.27,4 -4,4"/>
<!-- Quantum -->
<g id="node1" class="node">
<title>Quantum</title>
<ellipse fill="none" stroke="black" cx="2443.18" cy="-90" rx="44.39" ry="18"/>
<text text-anchor="middle" x="2443.18" y="-86.3" font-family="Times,serif" font-size="14.00">Quantum</text>
</g>
<!-- Logical -->
<g id="node2" class="node">
<title>Logical</title>
<ellipse fill="none" stroke="black" cx="2544.18" cy="-90" rx="38.19" ry="18"/>
<text text-anchor="middle" x="2544.18" y="-86.3" font-family="Times,serif" font-size="14.00">Logical</text>
</g>
<!-- Ontological -->
<g id="node3" class="node">
<title>Ontological</title>
<ellipse fill="none" stroke="black" cx="2652.18" cy="-90" rx="51.99" ry="18"/>
<text text-anchor="middle" x="2652.18" y="-86.3" font-family="Times,serif" font-size="14.00">Ontological</text>
</g>
<!-- Memory -->
<g id="node4" class="node">
<title>Memory</title>
<ellipse fill="none" stroke="black" cx="2764.18" cy="-90" rx="42.49" ry="18"/>
<text text-anchor="middle" x="2764.18" y="-86.3" font-family="Times,serif" font-size="14.00">Memory</text>
</g>
<!-- Docs -->
<g id="node5" class="node">
<title>Docs</title>
<ellipse fill="none" stroke="black" cx="2853.18" cy="-90" rx="28.7" ry="18"/>
<text text-anchor="middle" x="2853.18" y="-86.3" font-family="Times,serif" font-size="14.00">Docs</text>
</g>
<!-- CI -->
<g id="node6" class="node">
<title>CI</title>
<ellipse fill="none" stroke="black" cx="2927.18" cy="-90" rx="27" ry="18"/>
<text text-anchor="middle" x="2927.18" y="-86.3" font-family="Times,serif" font-size="14.00">CI</text>
</g>
<!-- dac92e5 -->
<g id="node7" class="node">
<title>dac92e5</title>
<ellipse fill="none" stroke="black" cx="213.18" cy="-18" rx="213.36" ry="18"/>
<text text-anchor="middle" x="213.18" y="-14.3" font-family="Times,serif" font-size="14.00">dac92e5 📜 [phase:report] CI и diff отчёты обновлены</text>
</g>
<!-- CI&#45;&gt;dac92e5 -->
<g id="edge1" class="edge">
<title>CI&#45;&gt;dac92e5</title>
<path fill="none" stroke="black" d="M2907.17,-77.71C2902.1,-75.38 2896.57,-73.25 2891.18,-72 2758.25,-41.17 571.5,-42.21 435.18,-36 413.15,-35 389.91,-33.59 367.1,-32.02"/>
<polygon fill="black" stroke="black" points="367.22,-28.52 357,-31.32 366.73,-35.51 367.22,-28.52"/>
</g>
<!-- d0053c8 -->
<g id="node8" class="node">
<title>d0053c8</title>
<ellipse fill="none" stroke="black" cx="658.18" cy="-18" rx="213.66" ry="18"/>
<text text-anchor="middle" x="658.18" y="-14.3" font-family="Times,serif" font-size="14.00">d0053c8 📜 [phase:report] CI и diff отчёты обновлены</text>
</g>
<!-- CI&#45;&gt;d0053c8 -->
<g id="edge2" class="edge">
<title>CI&#45;&gt;d0053c8</title>
<path fill="none" stroke="black" d="M2907.17,-77.73C2902.1,-75.39 2896.57,-73.26 2891.18,-72 2673.67,-21.18 1104.3,-46.49 881.18,-36 859.14,-34.96 835.89,-33.55 813.06,-31.98"/>
<polygon fill="black" stroke="black" points="813.17,-28.48 802.95,-31.27 812.68,-35.46 813.17,-28.48"/>
</g>
<!-- cb98317 -->
<g id="node9" class="node">
<title>cb98317</title>
<ellipse fill="none" stroke="black" cx="1143.18" cy="-18" rx="253.46" ry="18"/>
<text text-anchor="middle" x="1143.18" y="-14.3" font-family="Times,serif" font-size="14.00">cb98317 🧬 Add phase&#45;based CI, docs generator, and memory tests</text>
</g>
<!-- CI&#45;&gt;cb98317 -->
<g id="edge3" class="edge">
<title>CI&#45;&gt;cb98317</title>
<path fill="none" stroke="black" d="M2907.16,-77.75C2902.09,-75.41 2896.56,-73.28 2891.18,-72 2730.47,-33.91 1570.18,-43.35 1405.18,-36 1379.54,-34.86 1352.51,-33.4 1325.93,-31.81"/>
<polygon fill="black" stroke="black" points="1325.96,-28.31 1315.77,-31.2 1325.54,-35.29 1325.96,-28.31"/>
</g>
<!-- 1d38a43 -->
<g id="node10" class="node">
<title>1d38a43</title>
<ellipse fill="none" stroke="black" cx="1560.18" cy="-18" rx="145.67" ry="18"/>
<text text-anchor="middle" x="1560.18" y="-14.3" font-family="Times,serif" font-size="14.00">1d38a43 Add evaluator test step to CI</text>
</g>
<!-- CI&#45;&gt;1d38a43 -->
<g id="edge4" class="edge">
<title>CI&#45;&gt;1d38a43</title>
<path fill="none" stroke="black" d="M2907.15,-77.78C2902.09,-75.44 2896.56,-73.29 2891.18,-72 2636.97,-10.9 1976,-54.27 1715.18,-36 1700.7,-34.99 1685.48,-33.65 1670.48,-32.17"/>
<polygon fill="black" stroke="black" points="1670.43,-28.65 1660.13,-31.13 1669.73,-35.62 1670.43,-28.65"/>
</g>
<!-- ecd2bb6 -->
<g id="node11" class="node">
<title>ecd2bb6</title>
<ellipse fill="none" stroke="black" cx="1959.18" cy="-18" rx="235.06" ry="18"/>
<text text-anchor="middle" x="1959.18" y="-14.3" font-family="Times,serif" font-size="14.00">ecd2bb6 Refactor CI: phase validation and ontology generation</text>
</g>
<!-- CI&#45;&gt;ecd2bb6 -->
<g id="edge5" class="edge">
<title>CI&#45;&gt;ecd2bb6</title>
<path fill="none" stroke="black" d="M2907.13,-77.86C2902.07,-75.52 2896.54,-73.35 2891.18,-72 2742.72,-34.61 2356,-45.32 2203.18,-36 2180.84,-34.64 2157.36,-33.12 2134.16,-31.56"/>
<polygon fill="black" stroke="black" points="2134.09,-28.05 2123.87,-30.86 2133.62,-35.03 2134.09,-28.05"/>
</g>
<!-- cf6242e -->
<g id="node12" class="node">
<title>cf6242e</title>
<ellipse fill="none" stroke="black" cx="2444.18" cy="-18" rx="232.06" ry="18"/>
<text text-anchor="middle" x="2444.18" y="-14.3" font-family="Times,serif" font-size="14.00">cf6242e Phase migration: added CI, coverage, and session log</text>
</g>
<!-- CI&#45;&gt;cf6242e -->
<g id="edge6" class="edge">
<title>CI&#45;&gt;cf6242e</title>
<path fill="none" stroke="black" d="M2906.69,-77.93C2901.73,-75.65 2896.36,-73.49 2891.18,-72 2838.84,-56.97 2710.99,-42.6 2605.37,-32.62"/>
<polygon fill="black" stroke="black" points="2605.5,-29.12 2595.22,-31.67 2604.85,-36.09 2605.5,-29.12"/>
</g>
<!-- 86cb8be -->
<g id="node13" class="node">
<title>86cb8be</title>
<ellipse fill="none" stroke="black" cx="2927.18" cy="-18" rx="233.16" ry="18"/>
<text text-anchor="middle" x="2927.18" y="-14.3" font-family="Times,serif" font-size="14.00">86cb8be Phase migration: added CI, coverage, and session log</text>
</g>
<!-- CI&#45;&gt;86cb8be -->
<g id="edge7" class="edge">
<title>CI&#45;&gt;86cb8be</title>
<path fill="none" stroke="black" d="M2927.18,-71.7C2927.18,-63.98 2927.18,-54.71 2927.18,-46.11"/>
<polygon fill="black" stroke="black" points="2930.68,-46.1 2927.18,-36.1 2923.68,-46.1 2930.68,-46.1"/>
</g>
<!-- 72b32aa -->
<g id="node14" class="node">
<title>72b32aa</title>
<ellipse fill="none" stroke="black" cx="3318.18" cy="-18" rx="139.98" ry="18"/>
<text text-anchor="middle" x="3318.18" y="-14.3" font-family="Times,serif" font-size="14.00">72b32aa Fix PYTHONPATH for CI</text>
</g>
<!-- CI&#45;&gt;72b32aa -->
<g id="edge8" class="edge">
<title>CI&#45;&gt;72b32aa</title>
<path fill="none" stroke="black" d="M2953.14,-84.35C3008.57,-74.43 3140.7,-50.77 3229.83,-34.82"/>
<polygon fill="black" stroke="black" points="3230.71,-38.22 3239.94,-33.01 3229.48,-31.33 3230.71,-38.22"/>
</g>
<!-- d2b77da -->
<g id="node15" class="node">
<title>d2b77da</title>
<ellipse fill="none" stroke="black" cx="3616.18" cy="-18" rx="140.28" ry="18"/>
<text text-anchor="middle" x="3616.18" y="-14.3" font-family="Times,serif" font-size="14.00">d2b77da Fix PYTHONPATH for CI</text>
</g>
<!-- CI&#45;&gt;d2b77da -->
<g id="edge9" class="edge">
<title>CI&#45;&gt;d2b77da</title>
<path fill="none" stroke="black" d="M2953.89,-86.53C3032.55,-79.22 3270.23,-56.9 3467.18,-36 3479.77,-34.66 3492.94,-33.22 3506.04,-31.76"/>
<polygon fill="black" stroke="black" points="3506.47,-35.24 3516.02,-30.65 3505.69,-28.28 3506.47,-35.24"/>
</g>
<!-- 90cdbcd -->
<g id="node16" class="node">
<title>90cdbcd</title>
<ellipse fill="none" stroke="black" cx="3945.18" cy="-18" rx="170.07" ry="18"/>
<text text-anchor="middle" x="3945.18" y="-14.3" font-family="Times,serif" font-size="14.00">90cdbcd Trigger CI and update requirements</text>
</g>
<!-- CI&#45;&gt;90cdbcd -->
<g id="edge10" class="edge">
<title>CI&#45;&gt;90cdbcd</title>
<path fill="none" stroke="black" d="M2953.98,-87.61C3058.14,-82.13 3446.19,-61.14 3765.18,-36 3781.25,-34.73 3798.11,-33.29 3814.8,-31.79"/>
<polygon fill="black" stroke="black" points="3815.52,-35.24 3825.17,-30.86 3814.89,-28.27 3815.52,-35.24"/>
</g>
<!-- 0dfd9c7 -->
<g id="node17" class="node">
<title>0dfd9c7</title>
<ellipse fill="none" stroke="black" cx="4257.18" cy="-18" rx="124.28" ry="18"/>
<text text-anchor="middle" x="4257.18" y="-14.3" font-family="Times,serif" font-size="14.00">0dfd9c7 Add Arca CI workflow</text>
</g>
<!-- CI&#45;&gt;0dfd9c7 -->
<g id="edge11" class="edge">
<title>CI&#45;&gt;0dfd9c7</title>
<path fill="none" stroke="black" d="M2954.2,-88.63C3084.05,-86.69 3656.83,-76.15 4124.18,-36 4136.26,-34.96 4148.93,-33.64 4161.45,-32.2"/>
<polygon fill="black" stroke="black" points="4161.92,-35.67 4171.44,-31.02 4161.1,-28.72 4161.92,-35.67"/>
</g>
<!-- 062cd87 -->
<g id="node18" class="node">
<title>062cd87</title>
<ellipse fill="none" stroke="black" cx="4516.18" cy="-18" rx="116.98" ry="18"/>
<text text-anchor="middle" x="4516.18" y="-14.3" font-family="Times,serif" font-size="14.00">062cd87 Trigger CI workflow</text>
</g>
<!-- CI&#45;&gt;062cd87 -->
<g id="edge12" class="edge">
<title>CI&#45;&gt;062cd87</title>
<path fill="none" stroke="black" d="M2954.17,-89.01C3100.3,-88.84 3811.53,-85.4 4390.18,-36 4401.69,-35.02 4413.77,-33.73 4425.69,-32.29"/>
<polygon fill="black" stroke="black" points="4426.16,-35.76 4435.65,-31.06 4425.3,-28.81 4426.16,-35.76"/>
</g>
<!-- 30508d3 -->
<g id="node19" class="node">
<title>30508d3</title>
<ellipse fill="none" stroke="black" cx="4816.18" cy="-18" rx="165.17" ry="18"/>
<text text-anchor="middle" x="4816.18" y="-14.3" font-family="Times,serif" font-size="14.00">30508d3 Add GitHub Actions CI workflow</text>
</g>
<!-- CI&#45;&gt;30508d3 -->
<g id="edge13" class="edge">
<title>CI&#45;&gt;30508d3</title>
<path fill="none" stroke="black" d="M2954.18,-88.84C3114.4,-87.74 3956.6,-80.04 4642.18,-36 4658.64,-34.94 4675.95,-33.57 4693.01,-32.06"/>
<polygon fill="black" stroke="black" points="4693.37,-35.54 4703.02,-31.16 4692.74,-28.57 4693.37,-35.54"/>
</g>
</g>
</svg>
