<?xml version="1.0" encoding="UTF-8" standalone="no"?>
<!DOCTYPE svg PUBLIC "-//W3C//DTD SVG 1.1//EN"
 "http://www.w3.org/Graphics/SVG/1.1/DTD/svg11.dtd">
<!-- Generated by graphviz version 2.42.4 (0)
 -->
<!-- Pages: 1 -->
HEAD
<svg width="5138pt" height="116pt"
 viewBox="0.00 0.00 5138.40 116.00" xmlns="http://www.w3.org/2000/svg" xmlns:xlink="http://www.w3.org/1999/xlink">
<g id="graph0" class="graph" transform="scale(1 1) rotate(0) translate(4 112)">
<polygon fill="white" stroke="transparent" points="-4,4 -4,-112 5134.4,-112 5134.4,4 -4,4"/>
<!-- Quantum -->
<g id="node1" class="node">
<title>Quantum</title>
<ellipse fill="none" stroke="black" cx="2537.67" cy="-90" rx="53.89" ry="18"/>
<text text-anchor="middle" x="2537.67" y="-86.3" font-family="Times,serif" font-size="14.00">Quantum</text>

<svg width="641pt" height="44pt"
 viewBox="0.00 0.00 640.95 44.00" xmlns="http://www.w3.org/2000/svg" xmlns:xlink="http://www.w3.org/1999/xlink">
<g id="graph0" class="graph" transform="scale(1 1) rotate(0) translate(4 40)">
<polygon fill="white" stroke="transparent" points="-4,4 -4,-40 636.95,-40 636.95,4 -4,4"/>
<!-- Quantum -->
<g id="node1" class="node">
<title>Quantum</title>
<ellipse fill="none" stroke="black" cx="53.95" cy="-18" rx="53.89" ry="18"/>
<text text-anchor="middle" x="53.95" y="-14.3" font-family="Times,serif" font-size="14.00">Quantum</text>
 19fda02 (🧩 [phase:migration] 2025-10-18 Автоматическая синхронизация)
</g>
<!-- Logical -->
<g id="node2" class="node">
<title>Logical</title>
 HEAD
<ellipse fill="none" stroke="black" cx="2653.67" cy="-90" rx="44.39" ry="18"/>
<text text-anchor="middle" x="2653.67" y="-86.3" font-family="Times,serif" font-size="14.00">Logical</text>

<ellipse fill="none" stroke="black" cx="169.95" cy="-18" rx="44.39" ry="18"/>
<text text-anchor="middle" x="169.95" y="-14.3" font-family="Times,serif" font-size="14.00">Logical</text>
 19fda02 (🧩 [phase:migration] 2025-10-18 Автоматическая синхронизация)
</g>
<!-- Ontological -->
<g id="node3" class="node">
<title>Ontological</title>
 HEAD
<ellipse fill="none" stroke="black" cx="2779.67" cy="-90" rx="63.89" ry="18"/>
<text text-anchor="middle" x="2779.67" y="-86.3" font-family="Times,serif" font-size="14.00">Ontological</text>
=======
<ellipse fill="none" stroke="black" cx="295.95" cy="-18" rx="63.89" ry="18"/>
<text text-anchor="middle" x="295.95" y="-14.3" font-family="Times,serif" font-size="14.00">Ontological</text>
 19fda02 (🧩 [phase:migration] 2025-10-18 Автоматическая синхронизация)
</g>
<!-- Memory -->
<g id="node4" class="node">
<title>Memory</title>
< HEAD
 fill="none" stroke="black" cx="2910.67" cy="-90" rx="49.29" ry="18"/>
<text text-anchor="middle" x="2910.67" y="-86.3" font-family="Times,serif" font-size="14.00">Memory</text>

<ellipse fill="none" stroke="black" cx="426.95" cy="-18" rx="49.29" ry="18"/>
<text text-anchor="middle" x="426.95" y="-14.3" font-family="Times,serif" font-size="14.00">Memory</text>
 19fda02 (🧩 [phase:migration] 2025-10-18 Автоматическая синхронизация)
</g>
<!-- Docs -->
<g id="node5" class="node">
<title>Docs</title>
 HEAD
<ellipse fill="none" stroke="black" cx="3011.67" cy="-90" rx="33.29" ry="18"/>
<text text-anchor="middle" x="3011.67" y="-86.3" font-family="Times,serif" font-size="14.00">Docs</text>
=======
<ellipse fill="none" stroke="black" cx="527.95" cy="-18" rx="33.29" ry="18"/>
<text text-anchor="middle" x="527.95" y="-14.3" font-family="Times,serif" font-size="14.00">Docs</text>
 19fda02 (🧩 [phase:migration] 2025-10-18 Автоматическая синхронизация)
</g>
<!-- CI -->
<g id="node6" class="node">
<title>CI</title>
 HEAD
<ellipse fill="none" stroke="black" cx="3089.67" cy="-90" rx="27" ry="18"/>
<text text-anchor="middle" x="3089.67" y="-86.3" font-family="Times,serif" font-size="14.00">CI</text>
</g>
<!-- cb98317 -->
<g id="node7" class="node">
<title>cb98317</title>
<ellipse fill="none" stroke="black" cx="323.67" cy="-18" rx="323.84" ry="18"/>
<text text-anchor="middle" x="323.67" y="-14.3" font-family="Times,serif" font-size="14.00">cb98317 🧬 Add phase&#45;based CI, docs generator, and memory tests</text>
</g>
<!-- CI&#45;&gt;cb98317 -->
<g id="edge1" class="edge">
<title>CI&#45;&gt;cb98317</title>
<path fill="none" stroke="black" d="M3069.66,-77.72C3064.59,-75.38 3059.06,-73.25 3053.67,-72 2923.94,-41.88 789.78,-40.4 656.67,-36 623.1,-34.89 587.64,-33.41 552.88,-31.79"/>
<polygon fill="black" stroke="black" points="552.76,-28.28 542.6,-31.3 552.43,-35.27 552.76,-28.28"/>
</g>
<!-- 1d38a43 -->
<g id="node8" class="node">
<title>1d38a43</title>
<ellipse fill="none" stroke="black" cx="853.67" cy="-18" rx="188.47" ry="18"/>
<text text-anchor="middle" x="853.67" y="-14.3" font-family="Times,serif" font-size="14.00">1d38a43 Add evaluator test step to CI</text>
</g>
<!-- CI&#45;&gt;1d38a43 -->
<g id="edge2" class="edge">
<title>CI&#45;&gt;1d38a43</title>
<path fill="none" stroke="black" d="M3069.66,-77.73C3064.59,-75.39 3059.06,-73.26 3053.67,-72 2836.92,-21.35 1272.96,-47.58 1050.67,-36 1031.46,-35 1011.22,-33.62 991.33,-32.08"/>
<polygon fill="black" stroke="black" points="991.52,-28.59 981.28,-31.29 990.97,-35.57 991.52,-28.59"/>
</g>
<!-- ecd2bb6 -->
<g id="node9" class="node">
<title>ecd2bb6</title>
<ellipse fill="none" stroke="black" cx="1363.67" cy="-18" rx="303.55" ry="18"/>
<text text-anchor="middle" x="1363.67" y="-14.3" font-family="Times,serif" font-size="14.00">ecd2bb6 Refactor CI: phase validation and ontology generation</text>
</g>
<!-- CI&#45;&gt;ecd2bb6 -->
<g id="edge3" class="edge">
<title>CI&#45;&gt;ecd2bb6</title>
<path fill="none" stroke="black" d="M3069.65,-77.76C3064.58,-75.42 3059.05,-73.28 3053.67,-72 2904.67,-36.54 1828.71,-42.17 1675.67,-36 1645.22,-34.77 1613.12,-33.27 1581.55,-31.66"/>
<polygon fill="black" stroke="black" points="1581.48,-28.15 1571.32,-31.14 1581.13,-35.14 1581.48,-28.15"/>
</g>
<!-- cf6242e -->
<g id="node10" class="node">
<title>cf6242e</title>
<ellipse fill="none" stroke="black" cx="1983.67" cy="-18" rx="298.95" ry="18"/>
<text text-anchor="middle" x="1983.67" y="-14.3" font-family="Times,serif" font-size="14.00">cf6242e Phase migration: added CI, coverage, and session log</text>
</g>
<!-- CI&#45;&gt;cf6242e -->
<g id="edge4" class="edge">
<title>CI&#45;&gt;cf6242e</title>
<path fill="none" stroke="black" d="M3069.63,-77.84C3064.56,-75.5 3059.04,-73.34 3053.67,-72 2889.18,-31.01 2460.97,-44.67 2291.67,-36 2263.2,-34.54 2233.25,-32.95 2203.67,-31.36"/>
<polygon fill="black" stroke="black" points="2203.83,-27.86 2193.66,-30.81 2203.45,-34.85 2203.83,-27.86"/>
</g>
<!-- 86cb8be -->
<g id="node11" class="node">
<title>86cb8be</title>
<ellipse fill="none" stroke="black" cx="2602.67" cy="-18" rx="301.65" ry="18"/>
<text text-anchor="middle" x="2602.67" y="-14.3" font-family="Times,serif" font-size="14.00">86cb8be Phase migration: added CI, coverage, and session log</text>
</g>
<!-- CI&#45;&gt;86cb8be -->
<g id="edge5" class="edge">
<title>CI&#45;&gt;86cb8be</title>
<path fill="none" stroke="black" d="M3069.18,-77.93C3064.22,-75.64 3058.85,-73.49 3053.67,-72 2982.92,-51.72 2903.79,-39.19 2831.8,-31.44"/>
<polygon fill="black" stroke="black" points="2832.01,-27.95 2821.69,-30.38 2831.27,-34.91 2832.01,-27.95"/>
</g>
<!-- 72b32aa -->
<g id="node12" class="node">
<title>72b32aa</title>
<ellipse fill="none" stroke="black" cx="3089.67" cy="-18" rx="167.07" ry="18"/>
<text text-anchor="middle" x="3089.67" y="-14.3" font-family="Times,serif" font-size="14.00">72b32aa Fix PYTHONPATH for CI</text>
</g>
<!-- CI&#45;&gt;72b32aa -->
<g id="edge6" class="edge">
<title>CI&#45;&gt;72b32aa</title>
<path fill="none" stroke="black" d="M3089.67,-71.7C3089.67,-63.98 3089.67,-54.71 3089.67,-46.11"/>
<polygon fill="black" stroke="black" points="3093.17,-46.1 3089.67,-36.1 3086.17,-46.1 3093.17,-46.1"/>
</g>
<!-- d2b77da -->
<g id="node13" class="node">
<title>d2b77da</title>
<ellipse fill="none" stroke="black" cx="3441.67" cy="-18" rx="167.07" ry="18"/>
<text text-anchor="middle" x="3441.67" y="-14.3" font-family="Times,serif" font-size="14.00">d2b77da Fix PYTHONPATH for CI</text>
</g>
<!-- CI&#45;&gt;d2b77da -->
<g id="edge7" class="edge">
<title>CI&#45;&gt;d2b77da</title>
<path fill="none" stroke="black" d="M3115.27,-83.91C3165.11,-74 3277.19,-51.71 3356.04,-36.03"/>
<polygon fill="black" stroke="black" points="3356.85,-39.44 3365.97,-34.05 3355.48,-32.57 3356.85,-39.44"/>
</g>
<!-- 90cdbcd -->
<g id="node14" class="node">
<title>90cdbcd</title>
<ellipse fill="none" stroke="black" cx="3848.67" cy="-18" rx="221.76" ry="18"/>
<text text-anchor="middle" x="3848.67" y="-14.3" font-family="Times,serif" font-size="14.00">90cdbcd Trigger CI and update requirements</text>
</g>
<!-- CI&#45;&gt;90cdbcd -->
<g id="edge8" class="edge">
<title>CI&#45;&gt;90cdbcd</title>
<path fill="none" stroke="black" d="M3116.24,-86.55C3207.31,-78.15 3511.54,-50.09 3698.05,-32.89"/>
<polygon fill="black" stroke="black" points="3698.58,-36.36 3708.22,-31.95 3697.94,-29.39 3698.58,-36.36"/>
</g>
<!-- 0dfd9c7 -->
<g id="node15" class="node">
<title>0dfd9c7</title>
<ellipse fill="none" stroke="black" cx="4239.67" cy="-18" rx="151.37" ry="18"/>
<text text-anchor="middle" x="4239.67" y="-14.3" font-family="Times,serif" font-size="14.00">0dfd9c7 Add Arca CI workflow</text>
</g>
<!-- CI&#45;&gt;0dfd9c7 -->
<g id="edge9" class="edge">
<title>CI&#45;&gt;0dfd9c7</title>
<path fill="none" stroke="black" d="M3116.87,-88.07C3232.95,-83.97 3698.35,-66.44 4079.67,-36 4094.04,-34.85 4109.11,-33.48 4124.03,-32.01"/>
<polygon fill="black" stroke="black" points="4124.71,-35.46 4134.31,-30.99 4124.02,-28.5 4124.71,-35.46"/>
</g>
<!-- 062cd87 -->
<g id="node16" class="node">
<title>062cd87</title>
<ellipse fill="none" stroke="black" cx="4555.67" cy="-18" rx="146.77" ry="18"/>
<text text-anchor="middle" x="4555.67" y="-14.3" font-family="Times,serif" font-size="14.00">062cd87 Trigger CI workflow</text>
</g>
<!-- CI&#45;&gt;062cd87 -->
<g id="edge10" class="edge">
<title>CI&#45;&gt;062cd87</title>
<path fill="none" stroke="black" d="M3116.91,-88.59C3254.31,-86.36 3884.98,-74.41 4399.67,-36 4414.02,-34.93 4429.09,-33.58 4443.97,-32.1"/>
<polygon fill="black" stroke="black" points="4444.63,-35.56 4454.23,-31.07 4443.92,-28.59 4444.63,-35.56"/>
</g>
<!-- 30508d3 -->
<g id="node17" class="node">
<title>30508d3</title>
<ellipse fill="none" stroke="black" cx="4925.67" cy="-18" rx="204.96" ry="18"/>
<text text-anchor="middle" x="4925.67" y="-14.3" font-family="Times,serif" font-size="14.00">30508d3 Add GitHub Actions CI workflow</text>
</g>
<!-- CI&#45;&gt;30508d3 -->
<g id="edge11" class="edge">
<title>CI&#45;&gt;30508d3</title>
<path fill="none" stroke="black" d="M3116.7,-88.59C3271.85,-86.13 4065.02,-72.23 4711.67,-36 4732.15,-34.85 4753.71,-33.41 4774.95,-31.86"/>
<polygon fill="black" stroke="black" points="4775.3,-35.34 4785.01,-31.11 4774.78,-28.36 4775.3,-35.34"/>

<ellipse fill="none" stroke="black" cx="605.95" cy="-18" rx="27" ry="18"/>
<text text-anchor="middle" x="605.95" y="-14.3" font-family="Times,serif" font-size="14.00">CI</text>
 19fda02 (🧩 [phase:migration] 2025-10-18 Автоматическая синхронизация)
</g>
</g>
</svg>
