<?xml version="1.0" encoding="UTF-8" standalone="no"?>
<!DOCTYPE svg PUBLIC "-//W3C//DTD SVG 1.1//EN"
 "http://www.w3.org/Graphics/SVG/1.1/DTD/svg11.dtd">
<!-- Generated by graphviz version 2.42.4 (0)
 -->
<!-- Pages: 1 -->
<svg width="5682pt" height="116pt"
 viewBox="0.00 0.00 5682.26 116.00" xmlns="http://www.w3.org/2000/svg" xmlns:xlink="http://www.w3.org/1999/xlink">
<g id="graph0" class="graph" transform="scale(1 1) rotate(0) translate(4 112)">
<polygon fill="white" stroke="transparent" points="-4,4 -4,-112 5678.26,-112 5678.26,4 -4,4"/>
<!-- Quantum -->
<g id="node1" class="node">
<title>Quantum</title>
<ellipse fill="none" stroke="black" cx="2842.18" cy="-90" rx="53.89" ry="18"/>
<text text-anchor="middle" x="2842.18" y="-86.3" font-family="Times,serif" font-size="14.00">Quantum</text>
</g>
<!-- Logical -->
<g id="node2" class="node">
<title>Logical</title>
<ellipse fill="none" stroke="black" cx="2958.18" cy="-90" rx="44.39" ry="18"/>
<text text-anchor="middle" x="2958.18" y="-86.3" font-family="Times,serif" font-size="14.00">Logical</text>
</g>
<!-- Ontological -->
<g id="node3" class="node">
<title>Ontological</title>
<ellipse fill="none" stroke="black" cx="3084.18" cy="-90" rx="63.89" ry="18"/>
<text text-anchor="middle" x="3084.18" y="-86.3" font-family="Times,serif" font-size="14.00">Ontological</text>
</g>
<!-- Memory -->
<g id="node4" class="node">
<title>Memory</title>
<ellipse fill="none" stroke="black" cx="3215.18" cy="-90" rx="49.29" ry="18"/>
<text text-anchor="middle" x="3215.18" y="-86.3" font-family="Times,serif" font-size="14.00">Memory</text>
</g>
<!-- Docs -->
<g id="node5" class="node">
<title>Docs</title>
<ellipse fill="none" stroke="black" cx="3316.18" cy="-90" rx="33.29" ry="18"/>
<text text-anchor="middle" x="3316.18" y="-86.3" font-family="Times,serif" font-size="14.00">Docs</text>
</g>
<!-- CI -->
<g id="node6" class="node">
<title>CI</title>
<ellipse fill="none" stroke="black" cx="3394.18" cy="-90" rx="27" ry="18"/>
<text text-anchor="middle" x="3394.18" y="-86.3" font-family="Times,serif" font-size="14.00">CI</text>
</g>
<!-- d0053c8 -->
<g id="node7" class="node">
<title>d0053c8</title>
<ellipse fill="none" stroke="black" cx="265.18" cy="-18" rx="265.35" ry="18"/>
<text text-anchor="middle" x="265.18" y="-14.3" font-family="Times,serif" font-size="14.00">d0053c8 📜 [phase:report] CI и diff отчёты обновлены</text>
</g>
<!-- CI&#45;&gt;d0053c8 -->
<g id="edge1" class="edge">
<title>CI&#45;&gt;d0053c8</title>
<path fill="none" stroke="black" d="M3374.17,-77.71C3369.1,-75.37 3363.56,-73.24 3358.18,-72 3205.57,-36.75 695.69,-41.85 539.18,-36 511.48,-34.96 482.24,-33.52 453.57,-31.91"/>
<polygon fill="black" stroke="black" points="453.64,-28.41 443.45,-31.34 453.24,-35.4 453.64,-28.41"/>
</g>
<!-- cb98317 -->
<g id="node8" class="node">
<title>cb98317</title>
<ellipse fill="none" stroke="black" cx="872.18" cy="-18" rx="323.84" ry="18"/>
<text text-anchor="middle" x="872.18" y="-14.3" font-family="Times,serif" font-size="14.00">cb98317 🧬 Add phase&#45;based CI, docs generator, and memory tests</text>
</g>
<!-- CI&#45;&gt;cb98317 -->
<g id="edge2" class="edge">
<title>CI&#45;&gt;cb98317</title>
<path fill="none" stroke="black" d="M3374.16,-77.72C3369.1,-75.39 3363.56,-73.25 3358.18,-72 3125.16,-17.7 1444.29,-44.1 1205.18,-36 1171.74,-34.87 1136.43,-33.38 1101.79,-31.75"/>
<polygon fill="black" stroke="black" points="1101.71,-28.25 1091.56,-31.27 1101.38,-35.24 1101.71,-28.25"/>
</g>
<!-- 1d38a43 -->
<g id="node9" class="node">
<title>1d38a43</title>
<ellipse fill="none" stroke="black" cx="1402.18" cy="-18" rx="188.47" ry="18"/>
<text text-anchor="middle" x="1402.18" y="-14.3" font-family="Times,serif" font-size="14.00">1d38a43 Add evaluator test step to CI</text>
</g>
<!-- CI&#45;&gt;1d38a43 -->
<g id="edge3" class="edge">
<title>CI&#45;&gt;1d38a43</title>
<path fill="none" stroke="black" d="M3374.16,-77.74C3369.09,-75.4 3363.56,-73.27 3358.18,-72 3167.88,-27.28 1794.38,-46.41 1599.18,-36 1580.04,-34.98 1559.89,-33.6 1540.06,-32.06"/>
<polygon fill="black" stroke="black" points="1540.3,-28.56 1530.05,-31.26 1539.74,-35.54 1540.3,-28.56"/>
</g>
<!-- ecd2bb6 -->
<g id="node10" class="node">
<title>ecd2bb6</title>
<ellipse fill="none" stroke="black" cx="1912.18" cy="-18" rx="303.55" ry="18"/>
<text text-anchor="middle" x="1912.18" y="-14.3" font-family="Times,serif" font-size="14.00">ecd2bb6 Refactor CI: phase validation and ontology generation</text>
</g>
<!-- CI&#45;&gt;ecd2bb6 -->
<g id="edge4" class="edge">
<title>CI&#45;&gt;ecd2bb6</title>
<path fill="none" stroke="black" d="M3374.15,-77.78C3369.08,-75.44 3363.55,-73.3 3358.18,-72 3235.62,-42.47 2350.12,-41.43 2224.18,-36 2194.22,-34.71 2162.66,-33.18 2131.58,-31.58"/>
<polygon fill="black" stroke="black" points="2131.68,-28.08 2121.51,-31.06 2131.31,-35.07 2131.68,-28.08"/>
</g>
<!-- cf6242e -->
<g id="node11" class="node">
<title>cf6242e</title>
<ellipse fill="none" stroke="black" cx="2532.18" cy="-18" rx="298.95" ry="18"/>
<text text-anchor="middle" x="2532.18" y="-14.3" font-family="Times,serif" font-size="14.00">cf6242e Phase migration: added CI, coverage, and session log</text>
</g>
<!-- CI&#45;&gt;cf6242e -->
<g id="edge5" class="edge">
<title>CI&#45;&gt;cf6242e</title>
<path fill="none" stroke="black" d="M3374.12,-77.9C3369.05,-75.56 3363.53,-73.38 3358.18,-72 3329.26,-64.54 2989.6,-44.42 2754.96,-31.23"/>
<polygon fill="black" stroke="black" points="2755.09,-27.73 2744.91,-30.66 2754.7,-34.72 2755.09,-27.73"/>
</g>
<!-- 86cb8be -->
<g id="node12" class="node">
<title>86cb8be</title>
<ellipse fill="none" stroke="black" cx="3151.18" cy="-18" rx="301.65" ry="18"/>
<text text-anchor="middle" x="3151.18" y="-14.3" font-family="Times,serif" font-size="14.00">86cb8be Phase migration: added CI, coverage, and session log</text>
</g>
<!-- CI&#45;&gt;86cb8be -->
<g id="edge6" class="edge">
<title>CI&#45;&gt;86cb8be</title>
<path fill="none" stroke="black" d="M3373.14,-78.25C3368.3,-76 3363.12,-73.78 3358.18,-72 3320.05,-58.26 3276.77,-46.6 3239.68,-37.74"/>
<polygon fill="black" stroke="black" points="3240.43,-34.32 3229.89,-35.43 3238.82,-41.13 3240.43,-34.32"/>
</g>
<!-- 72b32aa -->
<g id="node13" class="node">
<title>72b32aa</title>
<ellipse fill="none" stroke="black" cx="3637.18" cy="-18" rx="166.27" ry="18"/>
<text text-anchor="middle" x="3637.18" y="-14.3" font-family="Times,serif" font-size="14.00">72b32aa Fix PYTHONPATH for CI</text>
</g>
<!-- CI&#45;&gt;72b32aa -->
<g id="edge7" class="edge">
<title>CI&#45;&gt;72b32aa</title>
<path fill="none" stroke="black" d="M3418.81,-81.9C3454.33,-71.67 3521.19,-52.41 3571.61,-37.89"/>
<polygon fill="black" stroke="black" points="3572.82,-41.18 3581.46,-35.05 3570.88,-34.45 3572.82,-41.18"/>
</g>
<!-- d2b77da -->
<g id="node14" class="node">
<title>d2b77da</title>
<ellipse fill="none" stroke="black" cx="3988.18" cy="-18" rx="167.07" ry="18"/>
<text text-anchor="middle" x="3988.18" y="-14.3" font-family="Times,serif" font-size="14.00">d2b77da Fix PYTHONPATH for CI</text>
</g>
<!-- CI&#45;&gt;d2b77da -->
<g id="edge8" class="edge">
<title>CI&#45;&gt;d2b77da</title>
<path fill="none" stroke="black" d="M3420.85,-85.86C3498.45,-76.71 3727.58,-49.71 3869.79,-32.95"/>
<polygon fill="black" stroke="black" points="3870.35,-36.41 3879.88,-31.76 3869.53,-29.46 3870.35,-36.41"/>
</g>
<!-- 90cdbcd -->
<g id="node15" class="node">
<title>90cdbcd</title>
<ellipse fill="none" stroke="black" cx="4395.18" cy="-18" rx="221.76" ry="18"/>
<text text-anchor="middle" x="4395.18" y="-14.3" font-family="Times,serif" font-size="14.00">90cdbcd Trigger CI and update requirements</text>
</g>
<!-- CI&#45;&gt;90cdbcd -->
<g id="edge9" class="edge">
<title>CI&#45;&gt;90cdbcd</title>
<path fill="none" stroke="black" d="M3421.12,-87.19C3520.11,-80.54 3873.14,-56.73 4164.18,-36 4184.69,-34.54 4206.23,-32.98 4227.57,-31.43"/>
<polygon fill="black" stroke="black" points="4227.97,-34.91 4237.68,-30.69 4227.46,-27.93 4227.97,-34.91"/>
</g>
<!-- 0dfd9c7 -->
<g id="node16" class="node">
<title>0dfd9c7</title>
<ellipse fill="none" stroke="black" cx="4786.18" cy="-18" rx="151.37" ry="18"/>
<text text-anchor="middle" x="4786.18" y="-14.3" font-family="Times,serif" font-size="14.00">0dfd9c7 Add Arca CI workflow</text>
</g>
<!-- CI&#45;&gt;0dfd9c7 -->
<g id="edge10" class="edge">
<title>CI&#45;&gt;0dfd9c7</title>
<path fill="none" stroke="black" d="M3421.09,-88.47C3552.92,-85.74 4143.68,-71.98 4626.18,-36 4640.92,-34.9 4656.4,-33.53 4671.68,-32.05"/>
<polygon fill="black" stroke="black" points="4672.08,-35.52 4681.69,-31.06 4671.4,-28.56 4672.08,-35.52"/>
</g>
<!-- 062cd87 -->
<g id="node17" class="node">
<title>062cd87</title>
<ellipse fill="none" stroke="black" cx="5102.18" cy="-18" rx="146.47" ry="18"/>
<text text-anchor="middle" x="5102.18" y="-14.3" font-family="Times,serif" font-size="14.00">062cd87 Trigger CI workflow</text>
</g>
<!-- CI&#45;&gt;062cd87 -->
<g id="edge11" class="edge">
<title>CI&#45;&gt;062cd87</title>
<path fill="none" stroke="black" d="M3421.28,-88.83C3572.74,-87.71 4329.69,-80.06 4946.18,-36 4960.89,-34.95 4976.36,-33.58 4991.6,-32.08"/>
<polygon fill="black" stroke="black" points="4991.98,-35.56 5001.57,-31.07 4991.27,-28.59 4991.98,-35.56"/>
</g>
<!-- 30508d3 -->
<g id="node18" class="node">
<title>30508d3</title>
<ellipse fill="none" stroke="black" cx="5470.18" cy="-18" rx="204.16" ry="18"/>
<text text-anchor="middle" x="5470.18" y="-14.3" font-family="Times,serif" font-size="14.00">30508d3 Add GitHub Actions CI workflow</text>
</g>
<!-- CI&#45;&gt;30508d3 -->
<g id="edge12" class="edge">
<title>CI&#45;&gt;30508d3</title>
<path fill="none" stroke="black" d="M3421.28,-88.75C3589.55,-87.1 4508.81,-76.48 5257.18,-36 5277.72,-34.89 5299.36,-33.46 5320.66,-31.91"/>
<polygon fill="black" stroke="black" points="5321.04,-35.39 5330.75,-31.16 5320.52,-28.41 5321.04,-35.39"/>
</g>
</g>
</svg>
