<?xml version="1.0" encoding="UTF-8" standalone="no"?>
<!DOCTYPE svg PUBLIC "-//W3C//DTD SVG 1.1//EN"
 "http://www.w3.org/Graphics/SVG/1.1/DTD/svg11.dtd">
<!-- Generated by graphviz version 2.42.4 (0)
 -->
<!-- Title: MetaPhysicsDependencies Pages: 1 -->
<svg width="725pt" height="332pt"
 viewBox="0.00 0.00 724.50 332.00" xmlns="http://www.w3.org/2000/svg" xmlns:xlink="http://www.w3.org/1999/xlink">
<g id="graph0" class="graph" transform="scale(1 1) rotate(0) translate(4 328)">
<title>MetaPhysicsDependencies</title>
<polygon fill="white" stroke="transparent" points="-4,4 -4,-328 720.5,-328 720.5,4 -4,4"/>
<!-- A00 -->
<g id="node1" class="node">
<title>A00</title>
<path fill="none" stroke="black" d="M210,-324C210,-324 145,-324 145,-324 139,-324 133,-318 133,-312 133,-312 133,-300 133,-300 133,-294 139,-288 145,-288 145,-288 210,-288 210,-288 216,-288 222,-294 222,-300 222,-300 222,-312 222,-312 222,-318 216,-324 210,-324"/>
<text text-anchor="middle" x="177.5" y="-302.9" font-family="Times,serif" font-size="12.00">00 Intro Physys</text>
</g>
<!-- A01 -->
<g id="node2" class="node">
<title>A01</title>
<path fill="none" stroke="black" d="M93,-252C93,-252 12,-252 12,-252 6,-252 0,-246 0,-240 0,-240 0,-228 0,-228 0,-222 6,-216 12,-216 12,-216 93,-216 93,-216 99,-216 105,-222 105,-228 105,-228 105,-240 105,-240 105,-246 99,-252 93,-252"/>
<text text-anchor="middle" x="52.5" y="-230.9" font-family="Times,serif" font-size="12.00">01 Singular Physys</text>
</g>
<!-- A00&#45;&gt;A01 -->
<g id="edge1" class="edge">
<title>A00&#45;&gt;A01</title>
<path fill="none" stroke="black" d="M146.92,-287.88C130.43,-278.64 109.88,-267.13 92.16,-257.21"/>
<polygon fill="black" stroke="black" points="93.63,-254.02 83.2,-252.19 90.21,-260.13 93.63,-254.02"/>
</g>
<!-- A02 -->
<g id="node3" class="node">
<title>A02</title>
<path fill="none" stroke="black" d="M220,-252C220,-252 135,-252 135,-252 129,-252 123,-246 123,-240 123,-240 123,-228 123,-228 123,-222 129,-216 135,-216 135,-216 220,-216 220,-216 226,-216 232,-222 232,-228 232,-228 232,-240 232,-240 232,-246 226,-252 220,-252"/>
<text text-anchor="middle" x="177.5" y="-230.9" font-family="Times,serif" font-size="12.00">02 Adaptive Physys</text>
</g>
<!-- A00&#45;&gt;A02 -->
<g id="edge2" class="edge">
<title>A00&#45;&gt;A02</title>
<path fill="none" stroke="black" d="M177.5,-287.7C177.5,-279.98 177.5,-270.71 177.5,-262.11"/>
<polygon fill="black" stroke="black" points="181,-262.1 177.5,-252.1 174,-262.1 181,-262.1"/>
</g>
<!-- A03 -->
<g id="node4" class="node">
<title>A03</title>
<path fill="none" stroke="black" d="M355,-252C355,-252 262,-252 262,-252 256,-252 250,-246 250,-240 250,-240 250,-228 250,-228 250,-222 256,-216 262,-216 262,-216 355,-216 355,-216 361,-216 367,-222 367,-228 367,-228 367,-240 367,-240 367,-246 361,-252 355,-252"/>
<text text-anchor="middle" x="308.5" y="-230.9" font-family="Times,serif" font-size="12.00">03 Interaction Physys</text>
</g>
<!-- A00&#45;&gt;A03 -->
<g id="edge3" class="edge">
<title>A00&#45;&gt;A03</title>
<path fill="none" stroke="black" d="M209.55,-287.88C226.99,-278.55 248.77,-266.92 267.44,-256.94"/>
<polygon fill="black" stroke="black" points="269.16,-259.99 276.33,-252.19 265.86,-253.82 269.16,-259.99"/>
</g>
<!-- A04 -->
<g id="node5" class="node">
<title>A04</title>
<path fill="none" stroke="black" d="M132.5,-180C132.5,-180 52.5,-180 52.5,-180 46.5,-180 40.5,-174 40.5,-168 40.5,-168 40.5,-156 40.5,-156 40.5,-150 46.5,-144 52.5,-144 52.5,-144 132.5,-144 132.5,-144 138.5,-144 144.5,-150 144.5,-156 144.5,-156 144.5,-168 144.5,-168 144.5,-174 138.5,-180 132.5,-180"/>
<text text-anchor="middle" x="92.5" y="-158.9" font-family="Times,serif" font-size="12.00">04 Phase Memory</text>
</g>
<!-- A03&#45;&gt;A04 -->
<g id="edge4" class="edge">
<title>A03&#45;&gt;A04</title>
<path fill="none" stroke="black" d="M255.94,-215.97C225.27,-206.03 186.42,-193.44 154.29,-183.02"/>
<polygon fill="black" stroke="black" points="155.14,-179.62 144.55,-179.87 152.98,-186.28 155.14,-179.62"/>
</g>
<!-- A05 -->
<g id="node6" class="node">
<title>A05</title>
<path fill="none" stroke="black" d="M296.5,-180C296.5,-180 174.5,-180 174.5,-180 168.5,-180 162.5,-174 162.5,-168 162.5,-168 162.5,-156 162.5,-156 162.5,-150 168.5,-144 174.5,-144 174.5,-144 296.5,-144 296.5,-144 302.5,-144 308.5,-150 308.5,-156 308.5,-156 308.5,-168 308.5,-168 308.5,-174 302.5,-180 296.5,-180"/>
<text text-anchor="middle" x="235.5" y="-158.9" font-family="Times,serif" font-size="12.00">05 Impedance &amp; Hysteresis</text>
</g>
<!-- A03&#45;&gt;A05 -->
<g id="edge5" class="edge">
<title>A03&#45;&gt;A05</title>
<path fill="none" stroke="black" d="M290.46,-215.7C281.44,-207.05 270.38,-196.45 260.56,-187.03"/>
<polygon fill="black" stroke="black" points="262.98,-184.5 253.34,-180.1 258.13,-189.55 262.98,-184.5"/>
</g>
<!-- A06 -->
<g id="node7" class="node">
<title>A06</title>
<path fill="none" stroke="black" d="M426,-180C426,-180 339,-180 339,-180 333,-180 327,-174 327,-168 327,-168 327,-156 327,-156 327,-150 333,-144 339,-144 339,-144 426,-144 426,-144 432,-144 438,-150 438,-156 438,-156 438,-168 438,-168 438,-174 432,-180 426,-180"/>
<text text-anchor="middle" x="382.5" y="-158.9" font-family="Times,serif" font-size="12.00">06 Resonance Node</text>
</g>
<!-- A03&#45;&gt;A06 -->
<g id="edge6" class="edge">
<title>A03&#45;&gt;A06</title>
<path fill="none" stroke="black" d="M326.79,-215.7C335.93,-207.05 347.14,-196.45 357.1,-187.03"/>
<polygon fill="black" stroke="black" points="359.56,-189.52 364.42,-180.1 354.75,-184.43 359.56,-189.52"/>
</g>
<!-- A07 -->
<g id="node8" class="node">
<title>A07</title>
<path fill="none" stroke="black" d="M548.5,-180C548.5,-180 468.5,-180 468.5,-180 462.5,-180 456.5,-174 456.5,-168 456.5,-168 456.5,-156 456.5,-156 456.5,-150 462.5,-144 468.5,-144 468.5,-144 548.5,-144 548.5,-144 554.5,-144 560.5,-150 560.5,-156 560.5,-156 560.5,-168 560.5,-168 560.5,-174 554.5,-180 548.5,-180"/>
<text text-anchor="middle" x="508.5" y="-158.9" font-family="Times,serif" font-size="12.00">07 Phase Network</text>
</g>
<!-- A03&#45;&gt;A07 -->
<g id="edge7" class="edge">
<title>A03&#45;&gt;A07</title>
<path fill="none" stroke="black" d="M357.17,-215.97C385.11,-206.19 420.4,-193.84 449.86,-183.52"/>
<polygon fill="black" stroke="black" points="451.33,-186.72 459.61,-180.11 449.02,-180.11 451.33,-186.72"/>
</g>
<!-- A08 -->
<g id="node9" class="node">
<title>A08</title>
<path fill="none" stroke="black" d="M409,-108C409,-108 324,-108 324,-108 318,-108 312,-102 312,-96 312,-96 312,-84 312,-84 312,-78 318,-72 324,-72 324,-72 409,-72 409,-72 415,-72 421,-78 421,-84 421,-84 421,-96 421,-96 421,-102 415,-108 409,-108"/>
<text text-anchor="middle" x="366.5" y="-86.9" font-family="Times,serif" font-size="12.00">08 Phase Operators</text>
</g>
<!-- A07&#45;&gt;A08 -->
<g id="edge8" class="edge">
<title>A07&#45;&gt;A08</title>
<path fill="none" stroke="black" d="M473.76,-143.88C454.68,-134.47 430.82,-122.71 410.45,-112.67"/>
<polygon fill="black" stroke="black" points="411.89,-109.47 401.37,-108.19 408.79,-115.75 411.89,-109.47"/>
</g>
<!-- A09 -->
<g id="node10" class="node">
<title>A09</title>
<path fill="none" stroke="black" d="M566,-108C566,-108 451,-108 451,-108 445,-108 439,-102 439,-96 439,-96 439,-84 439,-84 439,-78 445,-72 451,-72 451,-72 566,-72 566,-72 572,-72 578,-78 578,-84 578,-84 578,-96 578,-96 578,-102 572,-108 566,-108"/>
<text text-anchor="middle" x="508.5" y="-86.9" font-family="Times,serif" font-size="12.00">09 Functors &amp; Categories</text>
</g>
<!-- A07&#45;&gt;A09 -->
<g id="edge9" class="edge">
<title>A07&#45;&gt;A09</title>
<path fill="none" stroke="black" d="M508.5,-143.7C508.5,-135.98 508.5,-126.71 508.5,-118.11"/>
<polygon fill="black" stroke="black" points="512,-118.1 508.5,-108.1 505,-118.1 512,-118.1"/>
</g>
<!-- A10 -->
<g id="node11" class="node">
<title>A10</title>
<path fill="none" stroke="black" d="M682.5,-108C682.5,-108 608.5,-108 608.5,-108 602.5,-108 596.5,-102 596.5,-96 596.5,-96 596.5,-84 596.5,-84 596.5,-78 602.5,-72 608.5,-72 608.5,-72 682.5,-72 682.5,-72 688.5,-72 694.5,-78 694.5,-84 694.5,-84 694.5,-96 694.5,-96 694.5,-102 688.5,-108 682.5,-108"/>
<text text-anchor="middle" x="645.5" y="-86.9" font-family="Times,serif" font-size="12.00">10 Superposition</text>
</g>
<!-- A07&#45;&gt;A10 -->
<g id="edge10" class="edge">
<title>A07&#45;&gt;A10</title>
<path fill="none" stroke="black" d="M542.01,-143.88C560.34,-134.51 583.24,-122.81 602.83,-112.8"/>
<polygon fill="black" stroke="black" points="604.54,-115.86 611.86,-108.19 601.36,-109.62 604.54,-115.86"/>
</g>
<!-- A11 -->
<g id="node12" class="node">
<title>A11</title>
<path fill="none" stroke="black" d="M704.5,-36C704.5,-36 586.5,-36 586.5,-36 580.5,-36 574.5,-30 574.5,-24 574.5,-24 574.5,-12 574.5,-12 574.5,-6 580.5,0 586.5,0 586.5,0 704.5,0 704.5,0 710.5,0 716.5,-6 716.5,-12 716.5,-12 716.5,-24 716.5,-24 716.5,-30 710.5,-36 704.5,-36"/>
<text text-anchor="middle" x="645.5" y="-14.9" font-family="Times,serif" font-size="12.00">11 ArcaLang Architecture</text>
</g>
<!-- A10&#45;&gt;A11 -->
<g id="edge11" class="edge">
<title>A10&#45;&gt;A11</title>
<path fill="none" stroke="black" d="M645.5,-71.7C645.5,-63.98 645.5,-54.71 645.5,-46.11"/>
<polygon fill="black" stroke="black" points="649,-46.1 645.5,-36.1 642,-46.1 649,-46.1"/>
</g>
<!-- A12 -->
<g id="node13" class="node">
<title>A12</title>
<path fill="none" stroke="black" d="M301,-324C301,-324 252,-324 252,-324 246,-324 240,-318 240,-312 240,-312 240,-300 240,-300 240,-294 246,-288 252,-288 252,-288 301,-288 301,-288 307,-288 313,-294 313,-300 313,-300 313,-312 313,-312 313,-318 307,-324 301,-324"/>
<text text-anchor="middle" x="276.5" y="-302.9" font-family="Times,serif" font-size="12.00">12 Timeline</text>
</g>
</g>
</svg>
