<?xml version="1.0" encoding="UTF-8" standalone="no"?>
<!DOCTYPE svg PUBLIC "-//W3C//DTD SVG 1.1//EN"
 "http://www.w3.org/Graphics/SVG/1.1/DTD/svg11.dtd">
<!-- Generated by graphviz version 2.42.4 (0)
 -->
<!-- Title: CI_Phases Pages: 1 -->
<svg width="1132pt" height="44pt"
 viewBox="0.00 0.00 1132.00 44.00" xmlns="http://www.w3.org/2000/svg" xmlns:xlink="http://www.w3.org/1999/xlink">
<g id="graph0" class="graph" transform="scale(1 1) rotate(0) translate(4 40)">
<title>CI_Phases</title>
<polygon fill="white" stroke="transparent" points="-4,4 -4,-40 1128,-40 1128,4 -4,4"/>
<!-- Quantum_Core -->
<g id="node1" class="node">
<title>Quantum_Core</title>
<polygon fill="lightgrey" stroke="black" points="136,-36 0,-36 0,0 136,0 136,-36"/>
<text text-anchor="middle" x="68" y="-14.3" font-family="Segoe UI" font-size="14.00">🧬 Quantum Core</text>
</g>
<!-- Quantum_Interpreter -->
<g id="node2" class="node">
<title>Quantum_Interpreter</title>
<polygon fill="lightgrey" stroke="black" points="351,-36 172,-36 172,0 351,0 351,-36"/>
<text text-anchor="middle" x="261.5" y="-14.3" font-family="Segoe UI" font-size="14.00">🧬 Quantum Interpreter</text>
</g>
<!-- Quantum_Core&#45;&gt;Quantum_Interpreter -->
<g id="edge1" class="edge">
<title>Quantum_Core&#45;&gt;Quantum_Interpreter</title>
<path fill="none" stroke="black" d="M136.25,-18C144.53,-18 153.14,-18 161.77,-18"/>
<polygon fill="black" stroke="black" points="161.9,-21.5 171.9,-18 161.9,-14.5 161.9,-21.5"/>
</g>
<!-- Logical_Core -->
<g id="node3" class="node">
<title>Logical_Core</title>
<polygon fill="lightgrey" stroke="black" points="505,-36 387,-36 387,0 505,0 505,-36"/>
<text text-anchor="middle" x="446" y="-14.3" font-family="Segoe UI" font-size="14.00">🔢 Logical Core</text>
</g>
<!-- Quantum_Interpreter&#45;&gt;Logical_Core -->
<g id="edge2" class="edge">
<title>Quantum_Interpreter&#45;&gt;Logical_Core</title>
<path fill="none" stroke="black" d="M351.08,-18C359.73,-18 368.41,-18 376.82,-18"/>
<polygon fill="black" stroke="black" points="376.91,-21.5 386.91,-18 376.91,-14.5 376.91,-21.5"/>
</g>
<!-- Logical_Fieldcore -->
<g id="node4" class="node">
<title>Logical_Fieldcore</title>
<polygon fill="lightgrey" stroke="black" points="688,-36 541,-36 541,0 688,0 688,-36"/>
<text text-anchor="middle" x="614.5" y="-14.3" font-family="Segoe UI" font-size="14.00">🔢 Logical Fieldcore</text>
</g>
<!-- Logical_Core&#45;&gt;Logical_Fieldcore -->
<g id="edge3" class="edge">
<title>Logical_Core&#45;&gt;Logical_Fieldcore</title>
<path fill="none" stroke="black" d="M505.23,-18C513.52,-18 522.18,-18 530.83,-18"/>
<polygon fill="black" stroke="black" points="530.95,-21.5 540.95,-18 530.95,-14.5 530.95,-21.5"/>
</g>
<!-- Ontological -->
<g id="node5" class="node">
<title>Ontological</title>
<polygon fill="lightgrey" stroke="black" points="837,-36 724,-36 724,0 837,0 837,-36"/>
<text text-anchor="middle" x="780.5" y="-14.3" font-family="Segoe UI" font-size="14.00">🧩 Ontological</text>
</g>
<!-- Logical_Fieldcore&#45;&gt;Ontological -->
<g id="edge4" class="edge">
<title>Logical_Fieldcore&#45;&gt;Ontological</title>
<path fill="none" stroke="black" d="M688.39,-18C696.69,-18 705.12,-18 713.32,-18"/>
<polygon fill="black" stroke="black" points="713.57,-21.5 723.57,-18 713.57,-14.5 713.57,-21.5"/>
</g>
<!-- Memory -->
<g id="node6" class="node">
<title>Memory</title>
<polygon fill="lightgrey" stroke="black" points="966,-36 873,-36 873,0 966,0 966,-36"/>
<text text-anchor="middle" x="919.5" y="-14.3" font-family="Segoe UI" font-size="14.00">📦 Memory</text>
</g>
<!-- Ontological&#45;&gt;Memory -->
<g id="edge5" class="edge">
<title>Ontological&#45;&gt;Memory</title>
<path fill="none" stroke="black" d="M837.22,-18C845.65,-18 854.34,-18 862.77,-18"/>
<polygon fill="black" stroke="black" points="862.88,-21.5 872.88,-18 862.88,-14.5 862.88,-21.5"/>
</g>
<!-- Docs_Update -->
<g id="node7" class="node">
<title>Docs_Update</title>
<polygon fill="lightgrey" stroke="black" points="1124,-36 1002,-36 1002,0 1124,0 1124,-36"/>
<text text-anchor="middle" x="1063" y="-14.3" font-family="Segoe UI" font-size="14.00">📜 Docs Update</text>
</g>
<!-- Memory&#45;&gt;Docs_Update -->
<g id="edge6" class="edge">
<title>Memory&#45;&gt;Docs_Update</title>
<path fill="none" stroke="black" d="M966.05,-18C974.24,-18 982.94,-18 991.64,-18"/>
<polygon fill="black" stroke="black" points="991.82,-21.5 1001.82,-18 991.82,-14.5 991.82,-21.5"/>
</g>
</g>
</svg>
